<?xml version="1.0" standalone="no"?>
<!DOCTYPE svg PUBLIC "-//W3C//DTD SVG 20010904//EN"
 "http://www.w3.org/TR/2001/REC-SVG-20010904/DTD/svg10.dtd">
<svg version="1.0" xmlns="http://www.w3.org/2000/svg"
 width="600.000000pt" height="600.000000pt" viewBox="0 0 600.000000 600.000000"
 preserveAspectRatio="xMidYMid meet">
<metadata>
Created by potrace 1.16, written by Peter Selinger 2001-2019
</metadata>
<g transform="translate(0.000000,600.000000) scale(0.100000,-0.100000)"
fill="#000000" stroke="none">
<path d="M2070 5310 c-27 -27 -25 -69 5 -110 14 -19 25 -40 25 -47 0 -7 13
-27 28 -45 16 -18 46 -58 66 -88 52 -76 81 -112 154 -186 45 -47 62 -72 62
-92 0 -15 11 -51 25 -80 31 -67 32 -117 2 -173 -13 -24 -27 -57 -31 -73 -12
-47 -147 -199 -244 -274 -68 -52 -283 -279 -323 -342 -23 -36 -52 -81 -64
-100 -13 -19 -26 -46 -30 -60 -4 -14 -16 -34 -26 -46 -11 -11 -26 -46 -34 -78
-8 -31 -21 -67 -29 -79 -24 -37 -66 -263 -66 -356 0 -76 23 -183 48 -228 39
-67 108 -154 142 -178 23 -16 56 -41 73 -56 62 -49 134 -89 163 -89 41 0 190
-28 248 -46 27 -9 72 -16 100 -15 108 1 147 -24 162 -104 4 -22 15 -57 25 -77
11 -21 25 -64 33 -95 7 -32 21 -73 30 -92 10 -18 24 -65 32 -104 8 -40 21 -81
29 -93 7 -12 21 -46 30 -77 9 -31 21 -59 26 -63 5 -3 22 -31 38 -62 33 -67
118 -216 144 -252 10 -14 41 -61 70 -104 29 -44 61 -91 72 -106 11 -15 37 -51
58 -81 21 -30 51 -72 68 -94 16 -22 54 -76 84 -120 31 -44 64 -91 74 -105 10
-14 37 -56 61 -93 49 -77 85 -102 136 -92 75 14 79 55 18 173 -69 130 -67 127
-211 301 -96 116 -128 162 -222 321 -41 69 -85 136 -97 150 -42 47 -37 74 34
159 63 78 106 143 117 181 4 14 18 37 30 52 12 15 25 42 29 61 3 19 15 42 26
52 11 10 25 37 31 59 6 22 20 53 30 68 11 14 26 64 34 110 22 126 25 128 226
128 146 0 165 2 217 24 31 13 73 27 92 31 75 16 195 101 322 227 46 46 88 144
98 228 4 36 11 91 15 122 11 83 -12 271 -40 333 -12 28 -26 60 -29 72 -9 29
-70 130 -95 157 -10 12 -38 50 -62 86 -24 36 -51 72 -59 81 -8 9 -40 45 -70
80 -30 34 -70 78 -87 96 -18 19 -47 52 -64 74 -17 22 -96 104 -174 183 -173
174 -179 186 -173 343 4 133 30 187 161 336 15 17 27 35 27 40 0 4 36 44 79
88 90 91 116 135 108 187 -21 128 -157 72 -310 -128 -32 -41 -81 -99 -108
-128 -30 -31 -55 -69 -61 -90 -5 -21 -20 -53 -33 -72 -39 -57 -58 -278 -35
-400 23 -121 216 -371 392 -505 65 -50 173 -159 203 -205 12 -19 41 -55 64
-80 23 -25 52 -63 63 -85 11 -22 28 -51 38 -65 10 -14 20 -36 24 -50 4 -14 19
-50 34 -80 26 -52 27 -62 27 -210 0 -155 0 -155 -30 -203 -73 -118 -125 -169
-225 -219 -52 -27 -102 -48 -112 -48 -9 0 -40 -9 -68 -20 -68 -27 -260 -29
-281 -3 -27 32 -9 278 32 435 5 21 10 165 10 320 1 268 0 286 -21 338 -28 71
-36 80 -74 80 -49 0 -65 -18 -93 -110 l-27 -85 -7 -500 c-7 -487 -14 -601 -37
-657 -6 -15 -18 -66 -26 -113 -8 -48 -24 -101 -36 -119 -11 -19 -20 -40 -20
-47 0 -8 -8 -27 -17 -44 -9 -16 -30 -56 -47 -87 -62 -113 -136 -209 -158 -206
-24 3 -68 100 -92 198 -7 31 -21 70 -30 89 -10 18 -24 63 -31 100 -8 37 -21
83 -29 102 -8 20 -20 67 -26 105 -6 38 -20 101 -30 139 -37 139 -40 196 -40
661 l1 457 -28 56 c-36 70 -52 80 -96 59 -33 -16 -34 -18 -43 -100 -10 -97
-10 -647 1 -861 11 -232 7 -240 -125 -227 -192 19 -328 78 -458 198 -110 101
-126 176 -93 435 10 78 101 270 157 334 19 21 34 41 34 45 0 18 218 262 422
471 88 90 123 134 145 180 15 34 40 86 55 115 105 205 15 462 -258 736 -158
158 -226 194 -274 146z"/>
</g>
</svg>
