<?xml version="1.0" standalone="no"?>
<!DOCTYPE svg PUBLIC "-//W3C//DTD SVG 20010904//EN"
 "http://www.w3.org/TR/2001/REC-SVG-20010904/DTD/svg10.dtd">
<svg version="1.0" xmlns="http://www.w3.org/2000/svg"
 width="600.000000pt" height="600.000000pt" viewBox="0 0 600.000000 600.000000"
 preserveAspectRatio="xMidYMid meet">
<metadata>
Created by potrace 1.16, written by Peter Selinger 2001-2019
</metadata>
<g transform="translate(0.000000,600.000000) scale(0.100000,-0.100000)"
fill="#000000" stroke="none">
<path d="M1632 5318 c-35 -43 -58 -187 -33 -202 5 -4 16 -26 25 -51 8 -25 25
-58 36 -73 12 -15 48 -62 79 -105 61 -81 99 -113 191 -161 67 -35 112 -43 305
-56 137 -9 229 -19 310 -34 17 -4 136 -8 265 -11 219 -4 355 -12 605 -35 55
-5 159 -13 230 -18 106 -7 141 -13 190 -34 33 -15 85 -32 115 -39 30 -7 73
-20 95 -30 66 -30 179 -26 210 7 50 54 24 114 -68 161 -36 19 -84 34 -115 37
-29 3 -78 16 -110 30 -31 13 -86 27 -122 30 -36 3 -85 12 -109 20 -24 9 -59
16 -78 16 -19 0 -42 4 -51 9 -10 5 -161 12 -337 15 -176 3 -349 10 -385 17
-37 7 -188 13 -349 15 -156 1 -295 7 -310 12 -14 6 -51 13 -81 17 -85 10 -198
68 -239 124 -36 48 -94 166 -106 214 -4 16 -30 53 -57 83 -50 54 -84 68 -106
42z"/>
<path d="M1679 4547 c-19 -41 5 -222 34 -266 14 -20 30 -53 37 -73 26 -85 106
-118 297 -123 81 -2 252 -9 378 -15 127 -7 313 -13 414 -15 101 -1 200 -8 220
-14 21 -6 150 -12 316 -14 239 -3 287 -6 325 -21 61 -24 93 -31 242 -56 l127
-22 81 21 c100 25 100 25 100 64 0 25 -10 41 -41 71 -44 41 -69 50 -189 67
-127 18 -174 26 -190 32 -8 3 -76 9 -150 12 -74 3 -166 10 -205 16 -38 6 -99
11 -135 12 -36 1 -78 8 -95 15 -22 8 -175 13 -565 17 -294 3 -575 7 -625 10
-49 2 -98 4 -107 5 -27 0 -87 97 -94 153 -6 45 -50 115 -88 139 -26 17 -76 8
-87 -15z"/>
<path d="M1516 3918 c-34 -56 -24 -195 19 -247 12 -14 26 -37 30 -51 7 -23 26
-58 80 -143 15 -23 42 -41 100 -67 l80 -35 200 0 c110 0 229 6 263 12 47 9 71
9 90 1 15 -7 54 -14 86 -17 86 -9 106 -36 82 -119 -9 -32 -16 -72 -16 -88 0
-16 -7 -39 -15 -51 -25 -36 -131 -111 -173 -122 -21 -6 -47 -20 -57 -31 -10
-11 -34 -23 -53 -26 -37 -7 -140 -58 -196 -97 -118 -83 -152 -125 -183 -231
-8 -28 -21 -60 -29 -71 -21 -30 -17 -82 15 -190 50 -166 112 -207 369 -245 41
-5 93 -19 117 -30 24 -11 48 -20 52 -20 4 0 50 -21 101 -47 86 -45 93 -51 103
-87 20 -73 -17 -186 -94 -286 -31 -42 -238 -257 -528 -549 -300 -304 -330
-343 -295 -396 20 -30 47 -39 102 -30 55 8 189 121 384 322 122 126 154 161
215 239 17 21 44 54 61 73 16 20 39 48 50 62 10 15 51 63 89 107 95 110 114
136 127 174 6 18 20 43 31 55 39 43 61 228 37 312 -32 113 -176 214 -305 213
-83 0 -157 14 -199 39 -17 10 -47 20 -66 24 -41 8 -139 63 -151 85 -56 108
-60 138 -29 185 11 17 20 38 20 49 0 26 88 104 131 116 20 5 44 19 54 30 10
11 33 22 52 26 36 7 141 57 183 87 14 10 57 37 97 60 123 72 150 104 158 184
4 37 16 94 26 125 10 32 19 71 19 87 0 59 11 62 232 59 l201 -3 20 -27 c20
-27 26 -93 42 -488 3 -63 12 -137 20 -165 25 -90 34 -129 41 -180 3 -27 17
-68 31 -90 85 -136 108 -168 176 -236 74 -72 109 -95 262 -165 28 -12 63 -26
79 -29 17 -4 43 -16 58 -27 16 -11 55 -27 86 -35 31 -8 74 -24 97 -36 35 -18
56 -20 165 -19 148 3 154 4 169 41 24 56 -29 112 -119 126 -25 4 -63 17 -85
30 -22 12 -61 25 -87 29 -26 4 -58 16 -73 28 -14 11 -51 27 -82 35 -32 8 -73
23 -93 32 -19 10 -48 21 -65 25 -16 4 -39 16 -50 26 -11 10 -38 29 -61 42
-107 61 -184 142 -184 193 0 13 -9 42 -20 63 -11 21 -26 78 -34 128 -7 49 -18
101 -24 116 -30 73 -44 331 -28 486 11 101 22 111 105 93 29 -6 69 -11 89 -11
21 0 48 -7 60 -16 12 -8 53 -20 90 -26 37 -5 85 -19 107 -29 22 -11 74 -27
115 -35 41 -9 97 -24 125 -35 55 -21 135 -25 166 -9 66 36 -66 188 -191 220
-25 7 -61 20 -80 30 -19 9 -53 20 -75 24 -22 4 -62 13 -90 21 -122 34 -168 36
-780 39 -400 3 -650 8 -705 16 -47 6 -172 13 -279 16 -111 2 -210 9 -230 15
-49 16 -107 78 -121 128 -6 22 -15 43 -20 46 -5 3 -17 31 -26 61 -26 91 -134
156 -168 102z"/>
</g>
</svg>
