<?xml version="1.0" standalone="no"?>
<!DOCTYPE svg PUBLIC "-//W3C//DTD SVG 20010904//EN"
 "http://www.w3.org/TR/2001/REC-SVG-20010904/DTD/svg10.dtd">
<svg version="1.0" xmlns="http://www.w3.org/2000/svg"
 width="600.000000pt" height="600.000000pt" viewBox="0 0 600.000000 600.000000"
 preserveAspectRatio="xMidYMid meet">
<metadata>
Created by potrace 1.16, written by Peter Selinger 2001-2019
</metadata>
<g transform="translate(0.000000,600.000000) scale(0.100000,-0.100000)"
fill="#000000" stroke="none">
<path d="M1593 5304 c-27 -28 -28 -34 -4 -189 24 -157 81 -266 168 -322 99
-63 188 -94 298 -104 55 -5 132 -14 170 -20 46 -8 311 -14 760 -19 763 -7 778
-8 869 -70 59 -40 79 -83 77 -164 -1 -65 -23 -120 -55 -141 -44 -29 -221 -56
-556 -84 -85 -7 -131 -16 -175 -35 -33 -14 -66 -26 -74 -26 -16 0 -121 -70
-121 -80 0 -3 -15 -24 -34 -45 -34 -38 -79 -156 -90 -239 -13 -97 -63 -122
-215 -107 -58 6 -137 13 -176 16 -318 26 -381 37 -452 77 -159 88 -195 163
-212 438 -5 69 -15 148 -24 175 -9 28 -17 62 -17 77 0 38 -41 65 -78 52 -74
-25 -109 -232 -63 -372 17 -52 28 -119 37 -230 7 -91 145 -250 247 -284 17 -6
45 -20 60 -31 17 -11 57 -23 95 -28 94 -11 231 -37 245 -46 7 -5 62 -11 122
-14 171 -10 318 -29 342 -44 38 -25 40 -80 15 -430 l-7 -99 -35 -23 c-19 -12
-48 -32 -64 -45 -16 -12 -59 -40 -95 -61 -36 -22 -77 -50 -91 -62 -14 -12 -47
-39 -75 -60 -27 -20 -60 -51 -72 -68 -13 -17 -61 -70 -107 -118 -65 -68 -92
-105 -126 -175 -23 -49 -67 -138 -96 -199 -30 -61 -59 -136 -65 -169 -6 -33
-19 -83 -29 -110 -10 -28 -21 -87 -25 -131 -3 -44 -17 -111 -29 -150 -13 -38
-27 -106 -30 -150 -4 -44 -18 -113 -32 -153 -13 -40 -24 -96 -24 -125 0 -29
-4 -67 -10 -86 -14 -51 8 -159 37 -179 51 -33 124 10 138 81 18 91 27 136 37
172 6 22 14 92 19 155 11 151 24 253 42 320 8 30 17 79 20 108 4 30 17 77 31
107 13 29 27 72 31 96 4 24 17 62 30 84 12 22 25 56 29 76 3 20 15 44 26 54
11 10 25 35 30 56 6 21 21 51 34 66 13 15 44 60 69 98 42 66 148 170 292 288
62 50 107 52 126 5 18 -43 28 -392 34 -1207 6 -687 5 -681 62 -743 33 -36 89
-15 122 45 21 39 22 50 17 172 -17 386 -27 798 -31 1291 -4 535 -4 553 15 577
23 29 125 64 226 76 39 5 84 15 100 23 30 16 103 26 234 34 42 3 84 11 97 20
13 8 51 25 86 37 84 30 91 63 23 125 l-46 42 -85 0 c-66 0 -97 -5 -131 -21
-25 -11 -74 -25 -107 -31 -34 -5 -77 -19 -95 -29 -56 -32 -265 -52 -302 -29
-29 18 -14 416 16 441 9 8 23 8 46 0 18 -6 89 -13 158 -15 153 -6 266 -20 284
-35 8 -7 40 -16 72 -21 31 -5 73 -20 93 -34 20 -13 50 -27 67 -31 18 -3 40
-15 50 -27 11 -11 35 -28 54 -38 37 -19 170 -151 170 -169 0 -6 13 -25 28 -43
28 -32 68 -145 91 -253 5 -28 10 -129 10 -223 0 -95 3 -178 7 -184 4 -5 11
-40 15 -77 5 -36 14 -93 19 -126 5 -33 14 -111 19 -173 5 -62 19 -143 30 -180
11 -37 22 -88 26 -115 11 -83 73 -101 114 -31 44 74 60 196 37 273 -24 75 -39
169 -47 286 -4 61 -12 135 -18 165 -18 95 -30 182 -40 275 -5 50 -16 108 -24
130 -8 22 -20 80 -26 130 -21 159 -176 423 -292 498 -16 11 -29 22 -29 27 0
13 -132 72 -195 86 -33 8 -81 23 -106 34 -39 16 -72 20 -205 21 -141 1 -172 4
-274 31 -139 36 -150 44 -127 93 9 20 17 46 17 60 0 13 5 36 11 52 11 31 107
133 125 133 6 0 38 14 70 32 l59 32 250 7 c241 6 252 7 310 32 33 15 66 27 74
27 7 0 34 12 59 28 111 67 184 192 185 317 0 73 0 74 -54 154 -48 72 -133 151
-164 151 -4 0 -22 11 -40 24 -48 37 -167 51 -575 66 -124 5 -245 11 -270 14
-25 4 -232 8 -460 11 -228 3 -453 7 -500 10 -164 11 -254 82 -278 220 -15 87
-60 177 -106 214 -47 38 -60 38 -93 5z"/>
</g>
</svg>
