<?xml version="1.0" standalone="no"?>
<!DOCTYPE svg PUBLIC "-//W3C//DTD SVG 20010904//EN"
 "http://www.w3.org/TR/2001/REC-SVG-20010904/DTD/svg10.dtd">
<svg version="1.0" xmlns="http://www.w3.org/2000/svg"
 width="600.000000pt" height="600.000000pt" viewBox="0 0 600.000000 600.000000"
 preserveAspectRatio="xMidYMid meet">
<metadata>
Created by potrace 1.16, written by Peter Selinger 2001-2019
</metadata>
<g transform="translate(0.000000,600.000000) scale(0.100000,-0.100000)"
fill="#000000" stroke="none">
<path d="M3170 5926 c-7 -9 -20 -16 -30 -16 -10 0 -23 -7 -30 -15 -7 -8 -20
-15 -30 -15 -10 0 -23 -7 -30 -15 -7 -8 -20 -15 -29 -15 -43 0 -55 -59 -20
-96 l21 -22 -21 -11 c-27 -15 -27 -35 0 -60 16 -14 20 -27 15 -45 -5 -20 1
-32 29 -59 27 -27 35 -42 35 -71 0 -30 4 -36 20 -36 12 0 39 -19 62 -41 38
-37 40 -43 25 -54 -21 -15 -22 -54 -2 -61 8 -4 15 -15 15 -27 0 -12 28 -49 65
-88 64 -66 73 -90 39 -103 -24 -9 -16 -45 17 -74 25 -22 32 -37 33 -68 1 -34
4 -39 26 -42 14 -2 35 -13 48 -25 21 -20 22 -22 6 -34 -15 -11 -17 -28 -15
-120 l2 -108 -96 -95 c-86 -85 -95 -98 -95 -131 0 -24 -5 -39 -15 -43 -8 -3
-15 -16 -15 -30 0 -19 -6 -25 -27 -28 -35 -4 -47 -71 -17 -92 22 -16 10 -36
-22 -36 -18 0 -24 -5 -24 -22 0 -14 -24 -45 -65 -84 l-65 -62 3 -63 c2 -64 2
-64 -28 -69 -23 -4 -31 -11 -33 -30 -5 -34 -40 -70 -69 -70 -22 0 -23 -3 -23
-75 l0 -75 -45 0 -45 0 0 -38 c0 -29 -7 -45 -26 -63 -42 -39 -47 -55 -23 -78
l21 -19 -67 -65 c-37 -36 -64 -70 -61 -75 3 -6 -23 -40 -59 -75 -63 -62 -65
-66 -65 -115 0 -35 -4 -52 -15 -56 -8 -3 -15 -15 -15 -27 0 -13 -18 -40 -45
-66 -25 -23 -45 -50 -45 -59 0 -24 -74 -94 -99 -94 -11 0 -22 -6 -22 -12 -1
-7 -2 -18 -3 -24 0 -6 -9 -18 -18 -28 -22 -21 -24 -74 -3 -82 20 -8 19 -40 -1
-48 -9 -3 -14 -12 -11 -20 3 -8 -22 -40 -59 -77 -35 -35 -64 -72 -64 -81 0
-10 -20 -38 -45 -61 -48 -46 -56 -72 -28 -92 21 -15 8 -37 -20 -33 -20 3 -22
-3 -27 -57 -5 -57 -7 -60 -32 -63 -21 -3 -28 -9 -28 -25 0 -12 -20 -40 -49
-67 l-50 -47 0 -129 c0 -181 -18 -164 167 -164 154 0 158 1 184 25 22 20 26
31 22 55 -5 23 -2 31 12 36 35 10 49 21 49 37 0 8 8 24 18 35 14 15 18 34 16
82 -2 49 1 64 14 72 12 6 17 23 17 61 1 45 5 55 30 77 17 13 30 33 30 44 0 10
27 45 60 78 60 58 75 93 45 104 -34 13 -15 34 30 34 l45 0 0 40 c0 23 6 42 14
47 8 4 16 19 18 33 2 17 10 26 27 28 31 5 161 -121 161 -155 0 -19 5 -23 30
-23 32 0 42 -23 15 -34 -8 -3 -15 -16 -15 -30 0 -13 7 -26 15 -30 8 -3 15 -17
15 -31 0 -19 5 -25 23 -25 27 0 67 -40 67 -68 0 -11 7 -22 15 -26 8 -3 15 -12
15 -20 0 -7 -7 -16 -15 -20 -8 -3 -15 -15 -15 -26 0 -11 7 -23 15 -26 8 -4 15
-17 15 -30 0 -14 7 -27 15 -30 8 -4 15 -17 15 -30 0 -12 7 -27 16 -32 9 -5 17
-20 18 -33 1 -18 7 -25 28 -27 28 -3 48 -39 34 -60 -3 -5 3 -21 14 -35 14 -17
20 -41 20 -74 1 -41 5 -52 30 -73 23 -19 30 -32 30 -61 0 -24 5 -39 15 -43 8
-3 15 -16 15 -30 0 -13 7 -26 15 -30 10 -3 15 -19 15 -45 0 -25 5 -41 15 -45
8 -3 15 -12 15 -21 0 -8 -7 -15 -15 -15 -9 0 -15 -9 -15 -25 0 -13 -6 -28 -14
-32 -8 -4 -16 -19 -18 -33 -2 -19 -10 -26 -30 -28 -21 -3 -28 -9 -28 -26 0
-28 -39 -66 -68 -66 -20 0 -27 -10 -23 -34 1 -5 -8 -19 -20 -32 -18 -19 -21
-31 -16 -62 7 -42 -25 -86 -68 -94 -12 -2 -21 -13 -23 -28 -2 -14 -10 -29 -18
-33 -19 -11 -18 -46 1 -53 31 -12 15 -33 -27 -36 -37 -3 -43 -6 -46 -28 -2
-14 -10 -29 -18 -33 -8 -4 -14 -19 -14 -31 0 -13 -7 -26 -15 -30 -8 -3 -15
-15 -15 -27 0 -13 -18 -40 -45 -66 -25 -23 -45 -51 -45 -61 0 -10 -16 -31 -35
-47 l-34 -29 0 -149 c0 -82 3 -155 6 -163 4 -11 34 -14 146 -14 l141 0 43 42
c34 33 41 46 37 68 -6 28 8 45 41 52 11 2 20 11 20 20 0 9 8 25 18 35 9 11 17
28 17 39 1 10 14 30 30 44 23 19 30 32 30 61 0 24 5 39 15 43 10 3 15 19 15
45 0 36 3 40 28 43 21 2 28 9 30 31 2 16 10 31 18 34 9 3 14 21 14 57 0 56 29
96 69 96 16 0 21 6 21 25 0 13 8 28 17 33 13 8 16 22 14 58 -2 48 0 50 64 114
59 58 82 100 55 100 -41 0 -2 65 42 72 19 2 24 10 26 43 2 22 10 44 18 48 8 5
14 24 14 46 0 25 5 41 15 45 10 3 15 19 15 44 0 30 6 43 30 62 32 27 38 61 15
80 -19 16 -19 47 -1 57 8 4 16 26 18 48 3 39 4 40 43 43 45 4 57 16 48 50 -4
18 3 32 32 62 20 21 35 42 31 48 -3 5 4 18 15 28 15 13 19 26 15 46 -4 22 1
34 29 61 19 19 35 43 35 54 0 12 7 23 15 27 11 4 15 21 15 60 0 39 4 55 15 60
10 3 15 19 15 44 0 30 6 43 30 62 22 19 29 34 30 61 0 20 7 42 15 49 8 7 15
21 15 32 0 10 -7 21 -15 24 -22 9 -18 22 15 51 28 23 30 29 30 94 0 53 4 71
15 75 9 4 15 19 15 42 0 27 8 43 35 69 19 19 35 39 35 46 0 7 -16 25 -35 41
l-35 29 0 417 0 416 35 34 c43 42 43 48 0 90 -26 25 -35 42 -35 66 0 21 -6 37
-17 43 -17 9 -16 11 6 35 26 27 23 37 -21 76 -30 27 -37 64 -13 74 25 9 17 50
-15 76 -22 19 -29 34 -30 61 0 20 -7 42 -15 49 -8 7 -15 20 -15 30 0 10 7 23
15 30 8 7 15 23 15 35 0 13 -7 25 -15 29 -10 3 -15 19 -15 45 0 25 -5 41 -15
45 -8 3 -15 17 -15 31 0 14 -7 28 -15 31 -10 4 -15 19 -15 43 0 29 -7 42 -30
61 -23 20 -29 33 -30 63 0 24 -5 40 -15 43 -8 4 -15 16 -15 28 0 12 -9 29 -20
39 -12 10 -18 22 -14 28 3 6 -4 21 -17 35 -12 13 -19 27 -16 31 4 3 -1 16 -12
27 -10 12 -21 30 -23 41 -2 11 -12 21 -23 23 -48 9 -85 75 -50 88 26 10 17 57
-15 84 -24 19 -30 32 -30 62 0 33 -3 38 -22 38 -13 0 -34 12 -48 26 -22 24
-23 27 -7 39 25 18 21 47 -12 76 -21 19 -30 37 -33 65 -3 33 -7 40 -28 43 -31
4 -40 18 -34 51 4 20 -2 32 -31 59 -30 27 -35 38 -30 58 8 35 -11 53 -56 53
-35 0 -39 3 -39 25 0 13 -6 28 -14 32 -8 4 -16 19 -18 33 -4 31 -66 42 -88 16z
m471 -1608 c22 -28 25 -64 4 -72 -8 -3 -15 -16 -15 -30 0 -13 7 -26 15 -30 8
-3 15 -16 15 -30 0 -13 7 -26 15 -30 8 -3 15 -12 15 -20 0 -7 -7 -16 -15 -20
-24 -9 -17 -40 15 -66 23 -20 29 -33 30 -63 0 -24 5 -40 15 -43 8 -4 15 -13
15 -20 0 -8 -7 -17 -15 -20 -25 -10 -17 -38 20 -74 29 -28 34 -40 30 -62 -5
-20 -1 -32 14 -44 32 -28 33 -710 1 -739 -15 -14 -19 -26 -15 -46 5 -22 -1
-33 -29 -61 -34 -33 -36 -39 -36 -100 0 -49 -4 -67 -15 -72 -10 -3 -15 -19
-15 -44 0 -30 -6 -43 -30 -62 -31 -27 -39 -64 -15 -74 23 -8 18 -25 -15 -53
-24 -19 -30 -33 -30 -63 0 -24 -5 -40 -15 -44 -10 -3 -15 -19 -15 -45 0 -25
-5 -41 -15 -45 -10 -3 -15 -19 -15 -44 0 -30 -6 -43 -30 -62 -16 -14 -29 -35
-30 -47 0 -12 -8 -26 -17 -32 -12 -6 -17 -22 -18 -48 0 -34 -3 -38 -27 -41
-27 -3 -33 4 -29 35 1 7 -8 17 -19 23 -11 6 -20 21 -20 35 0 18 -6 24 -27 27
-25 3 -28 7 -31 46 -2 26 -9 45 -18 49 -8 3 -14 19 -14 41 0 30 -9 44 -60 94
-57 55 -60 60 -60 107 0 31 -5 53 -15 61 -8 7 -15 23 -15 36 0 18 -5 24 -23
24 -24 0 -82 52 -71 63 10 9 -16 37 -34 37 -45 0 -62 39 -62 142 l0 98 -75 0
c-61 0 -75 3 -75 15 0 9 7 18 15 21 8 4 15 15 15 25 0 11 14 33 30 49 17 16
30 37 30 46 0 9 29 46 65 81 36 35 62 69 59 75 -3 5 17 31 45 57 48 45 51 50
51 98 0 47 3 53 45 92 25 23 45 50 45 62 0 11 7 22 15 25 9 4 15 19 15 35 0
26 4 29 30 29 29 0 30 2 30 41 0 28 -6 46 -17 55 -17 13 -17 15 0 28 9 7 17
22 17 34 0 11 6 22 14 25 8 3 16 18 18 34 2 22 9 29 31 31 19 2 27 9 27 23 0
12 27 47 65 83 40 38 65 71 65 84 0 15 7 21 28 24 20 2 28 9 30 28 2 14 10 29
18 33 20 12 18 77 -3 93 -17 13 -17 15 0 28 9 7 17 21 17 31 0 16 36 65 48 65
2 0 12 -10 23 -22z"/>
</g>
</svg>
