<?xml version="1.0" standalone="no"?>
<!DOCTYPE svg PUBLIC "-//W3C//DTD SVG 20010904//EN"
 "http://www.w3.org/TR/2001/REC-SVG-20010904/DTD/svg10.dtd">
<svg version="1.0" xmlns="http://www.w3.org/2000/svg"
 width="600.000000pt" height="600.000000pt" viewBox="0 0 600.000000 600.000000"
 preserveAspectRatio="xMidYMid meet">
<metadata>
Created by potrace 1.16, written by Peter Selinger 2001-2019
</metadata>
<g transform="translate(0.000000,600.000000) scale(0.100000,-0.100000)"
fill="#000000" stroke="none">
<path d="M4165 5940 c-11 -12 -31 -20 -52 -20 -30 0 -33 -3 -33 -30 0 -17 -6
-39 -12 -50 -10 -15 -10 -22 0 -32 6 -6 12 -31 12 -55 l0 -43 45 0 c25 0 45
-4 45 -10 0 -5 -5 -10 -12 -10 -7 0 2 -15 19 -32 16 -18 33 -41 36 -51 4 -9
18 -22 32 -27 14 -5 25 -16 25 -23 0 -7 14 -26 30 -42 17 -16 30 -38 30 -50 0
-12 11 -32 25 -45 14 -13 25 -28 25 -35 0 -6 9 -17 20 -25 12 -8 20 -26 20
-42 0 -21 5 -28 20 -28 13 0 20 -7 20 -20 0 -11 5 -20 10 -20 6 0 10 -8 10
-18 0 -10 9 -24 20 -32 11 -8 20 -24 20 -35 0 -12 5 -26 11 -32 8 -8 8 -13 0
-17 -6 -4 -11 -18 -11 -32 0 -13 -4 -24 -10 -24 -5 0 -10 -9 -10 -20 0 -11 -4
-20 -10 -20 -5 0 -10 -13 -10 -30 0 -23 -4 -30 -20 -30 -17 0 -20 -7 -20 -44
0 -25 -4 -48 -10 -51 -5 -3 -10 -17 -10 -29 0 -16 -7 -26 -21 -29 -15 -4 -20
-11 -15 -23 3 -9 1 -23 -5 -30 -9 -11 -8 -18 1 -29 10 -12 10 -18 -1 -32 -8
-9 -13 -24 -11 -33 1 -9 -7 -25 -18 -35 -11 -10 -20 -29 -20 -42 0 -16 -6 -23
-20 -23 -15 0 -20 -7 -20 -29 0 -16 -6 -32 -12 -34 -10 -4 -9 -8 2 -17 11 -9
12 -13 3 -17 -8 -3 -13 -23 -13 -48 0 -24 -4 -47 -10 -50 -5 -3 -10 -26 -10
-51 0 -24 -4 -44 -10 -44 -14 0 -13 -43 1 -57 14 -14 -10 -43 -35 -43 -12 0
-16 -11 -16 -44 0 -25 -4 -48 -10 -51 -5 -3 -10 -17 -10 -31 0 -13 5 -24 10
-24 18 0 11 -33 -12 -57 l-21 -23 21 -23 c12 -13 22 -33 22 -45 0 -12 5 -22
10 -22 6 0 10 -8 10 -18 0 -10 9 -24 20 -32 12 -8 20 -26 20 -42 0 -21 5 -28
20 -28 11 0 20 -4 20 -10 0 -5 -4 -10 -10 -10 -17 0 -11 -26 10 -45 21 -19 28
-65 10 -65 -5 0 -10 -9 -10 -20 0 -19 -7 -20 -165 -20 -103 0 -165 4 -165 10
0 6 -7 10 -16 10 -34 0 -74 71 -56 100 11 18 5 40 -29 102 -5 10 -9 27 -9 38
0 12 -10 24 -24 30 -14 5 -33 26 -42 47 -10 21 -26 45 -36 54 -12 11 -18 31
-18 59 0 34 -6 47 -30 70 -16 15 -30 34 -30 42 0 25 -24 65 -45 74 -29 13 -35
89 -6 97 15 3 18 10 14 26 -4 17 0 24 16 28 13 3 21 13 21 27 0 12 9 28 20 36
11 8 20 22 20 32 0 11 7 18 20 18 11 0 20 7 20 15 0 21 45 65 67 65 13 0 14 3
5 12 -19 19 -15 48 8 48 11 0 20 6 20 13 0 7 16 28 35 47 19 19 35 40 35 47 0
7 14 26 30 41 20 20 30 39 30 59 0 17 9 38 20 48 11 10 20 23 20 30 0 7 -9 20
-20 30 -12 11 -20 31 -20 49 0 20 7 37 20 46 11 8 20 19 20 26 0 6 -9 19 -20
29 -11 10 -20 29 -20 42 0 14 -6 23 -15 23 -21 0 -31 30 -14 41 11 6 11 11 1
21 -6 6 -12 22 -12 35 0 17 -6 23 -21 23 -17 0 -19 3 -10 14 9 11 7 22 -9 51
-12 20 -20 47 -18 59 2 16 -3 22 -24 24 -30 4 -38 28 -16 50 9 9 5 19 -18 44
-42 48 -54 73 -54 118 l0 40 -105 0 -105 0 0 -65 c0 -37 -4 -65 -10 -65 -18 0
-11 -35 10 -50 12 -8 20 -26 20 -42 0 -21 5 -28 20 -28 13 0 22 -9 26 -25 3
-14 10 -25 15 -25 5 0 9 -13 9 -30 0 -16 5 -30 10 -30 6 0 10 -9 10 -20 0 -11
4 -20 9 -20 6 0 11 -17 13 -37 3 -33 7 -38 31 -41 33 -4 37 -40 7 -67 -11 -10
-20 -23 -20 -29 0 -7 9 -18 20 -26 12 -8 20 -26 20 -42 0 -21 5 -28 20 -28 11
0 20 -4 20 -10 0 -5 -4 -10 -10 -10 -5 0 -10 -11 -10 -23 0 -13 -9 -32 -20
-42 -23 -21 -26 -41 -7 -48 7 -3 -4 -21 -30 -49 -24 -24 -43 -49 -43 -54 0 -6
-10 -19 -21 -30 -12 -10 -25 -29 -30 -41 -5 -13 -15 -23 -24 -23 -8 0 -15 -6
-15 -13 0 -16 -34 -48 -72 -67 -21 -10 -28 -21 -28 -42 0 -21 -5 -28 -20 -28
-15 0 -20 -7 -20 -28 0 -16 -8 -34 -20 -42 -16 -11 -20 -26 -20 -67 0 -28 -4
-55 -10 -58 -15 -9 -12 -36 5 -55 14 -16 13 -20 -11 -49 l-27 -32 22 -23 c11
-12 21 -30 21 -40 0 -10 14 -31 30 -46 18 -17 30 -38 30 -54 0 -17 5 -26 15
-26 26 0 65 -47 65 -78 0 -18 10 -38 29 -56 17 -16 31 -40 33 -55 2 -14 12
-30 23 -35 38 -16 79 -126 54 -142 -8 -4 -7 -9 2 -14 25 -16 -10 -40 -57 -40
-24 0 -44 -4 -44 -10 0 -6 -35 -10 -84 -10 -47 0 -88 5 -91 10 -3 6 -17 10
-30 10 -13 0 -27 -4 -30 -10 -3 -5 -26 -10 -51 -10 -38 0 -44 -3 -44 -20 0
-19 -5 -21 -57 -18 -54 3 -58 5 -58 28 0 20 -6 26 -27 28 -16 2 -28 8 -28 15
0 6 -10 21 -22 34 -19 20 -20 26 -8 48 12 22 10 27 -19 54 -17 16 -31 34 -31
41 0 15 -25 40 -40 40 -16 0 -60 47 -60 65 0 8 -4 15 -10 15 -5 0 -10 6 -10
14 0 7 -7 19 -15 26 -8 7 -15 21 -15 31 0 11 -4 19 -10 19 -5 0 -10 10 -10 23
0 14 -16 39 -40 62 -34 34 -40 45 -40 82 0 31 4 43 14 43 23 0 49 60 34 77
-10 12 -6 20 22 44 30 27 32 32 21 53 -18 33 -10 59 22 74 20 10 26 19 22 31
-3 11 3 25 15 36 11 10 20 28 20 40 0 12 9 30 20 40 11 10 20 28 20 40 0 12
14 34 30 50 30 28 39 55 20 55 -5 0 -10 5 -10 10 0 6 14 10 30 10 28 0 30 2
30 40 0 22 3 40 8 40 4 0 12 11 19 25 11 25 2 42 -17 30 -5 -3 -10 0 -10 7 0
7 9 19 20 26 11 7 20 18 20 25 0 7 -9 19 -20 27 -12 8 -20 26 -20 42 0 15 -4
28 -10 28 -5 0 -10 6 -10 13 0 21 -34 47 -60 47 -19 0 -21 3 -12 12 17 17 15
58 -3 58 -9 0 -20 11 -25 25 -5 14 -20 29 -32 34 -27 10 -66 50 -82 83 -6 13
-21 27 -34 33 -12 5 -22 16 -22 23 0 7 -11 17 -25 22 -26 10 -157 6 -175 -5
-6 -3 -10 -47 -10 -101 l0 -94 33 0 c35 -1 117 -67 117 -95 0 -8 7 -15 16 -15
23 0 44 -25 44 -52 0 -13 9 -30 20 -38 11 -8 20 -22 20 -32 0 -10 5 -18 10
-18 6 0 10 -11 10 -24 0 -14 5 -28 10 -31 21 -13 9 -48 -30 -85 -22 -21 -40
-44 -40 -50 0 -7 -18 -28 -40 -47 -24 -22 -40 -44 -40 -58 0 -12 -9 -30 -20
-40 -11 -10 -20 -27 -20 -38 0 -12 -10 -31 -22 -44 -19 -20 -20 -25 -7 -40 9
-10 14 -24 13 -30 -1 -7 -2 -17 -3 -23 0 -5 -8 -10 -16 -10 -9 0 -15 -9 -15
-23 0 -12 -9 -29 -20 -37 -14 -10 -20 -26 -20 -50 0 -24 -6 -40 -20 -50 -26
-18 -26 -42 0 -60 14 -10 20 -26 20 -55 0 -29 -6 -45 -20 -55 -26 -18 -26 -42
0 -60 12 -8 20 -26 20 -42 0 -23 4 -28 23 -28 26 0 55 -28 77 -75 8 -16 23
-37 32 -46 10 -9 18 -31 18 -48 0 -25 10 -42 40 -71 22 -21 40 -42 40 -47 0
-5 14 -22 30 -38 17 -16 30 -34 30 -40 0 -7 8 -20 19 -29 12 -11 18 -29 17
-49 -2 -32 -2 -32 -56 -35 -30 -2 -59 -7 -65 -13 -5 -5 -28 -9 -52 -9 -24 0
-43 -4 -43 -10 0 -6 -63 -10 -170 -10 l-170 0 0 30 c0 23 -4 30 -20 30 -13 0
-20 7 -20 18 0 10 -9 24 -20 32 -14 10 -20 26 -20 56 0 33 -4 43 -20 47 -21 5
-30 57 -10 57 18 0 11 35 -10 50 -12 8 -20 26 -20 42 0 24 -4 28 -29 28 -27 0
-28 1 -18 25 7 14 15 25 20 25 4 0 7 7 7 15 0 10 -7 15 -17 13 -13 -2 -18 4
-18 21 0 14 -7 26 -15 29 -26 8 -80 65 -80 84 0 10 -4 18 -10 18 -5 0 -10 15
-10 33 0 21 -8 41 -19 51 -18 17 -10 66 12 66 4 0 7 9 7 20 0 11 5 20 10 20 6
0 10 9 10 20 0 11 5 20 10 20 6 0 10 13 10 29 0 16 6 31 13 34 9 3 9 9 -2 30
-15 28 -3 57 24 57 21 0 47 60 34 76 -6 7 -7 19 -3 25 4 7 6 37 5 66 -2 38 2
58 14 69 14 15 14 18 0 33 -21 24 -19 64 5 86 26 23 25 43 -1 66 -12 10 -19
25 -16 33 3 8 -3 22 -14 32 -10 9 -19 25 -19 34 0 9 -12 39 -26 68 -23 46 -29
52 -57 52 -29 1 -35 6 -63 65 -18 36 -28 65 -23 65 22 0 6 39 -30 74 -26 25
-37 44 -34 56 4 14 -6 23 -44 40 -26 11 -56 25 -65 30 -25 14 -44 12 -58 -5
-7 -8 -34 -15 -63 -17 l-52 -3 -3 -97 -3 -98 35 0 c19 0 38 -4 41 -10 3 -5 16
-10 29 -10 26 0 77 -51 97 -97 8 -18 17 -33 21 -33 5 0 8 -21 8 -46 0 -39 5
-51 31 -75 18 -17 29 -35 26 -43 -3 -8 1 -20 10 -27 8 -7 19 -23 24 -36 5 -13
15 -23 24 -23 11 0 15 -12 15 -50 0 -27 -4 -50 -10 -50 -5 0 -10 -26 -12 -57
-3 -52 -6 -59 -31 -71 -20 -10 -26 -19 -22 -31 3 -11 -3 -25 -15 -36 -14 -13
-20 -31 -20 -61 0 -33 -5 -47 -20 -56 -12 -8 -20 -24 -20 -40 0 -16 -4 -28
-10 -28 -5 0 -10 -9 -10 -20 0 -11 -4 -20 -10 -20 -5 0 -10 -9 -10 -20 0 -11
5 -20 10 -20 18 0 11 -46 -10 -65 -25 -23 -25 -37 0 -60 11 -10 20 -29 20 -42
0 -16 6 -23 20 -23 11 0 20 -4 20 -10 0 -5 -4 -10 -10 -10 -18 0 -11 -35 10
-50 12 -8 20 -26 20 -42 0 -19 4 -26 14 -22 8 3 17 1 21 -5 3 -6 1 -11 -4 -11
-6 0 -11 -7 -11 -16 0 -8 5 -12 10 -9 15 9 40 -14 40 -36 0 -11 5 -19 10 -19
6 0 10 -8 10 -19 0 -29 26 -72 52 -85 18 -9 24 -21 26 -58 2 -36 7 -47 23 -51
14 -4 19 -14 19 -41 0 -20 5 -36 10 -36 6 0 10 -15 10 -33 0 -43 -36 -78 -93
-92 -38 -9 -42 -13 -45 -45 -2 -19 -8 -41 -14 -47 -7 -9 -7 -17 0 -26 6 -6 12
-28 14 -47 3 -30 7 -35 31 -38 26 -3 37 -25 17 -37 -5 -3 -10 -26 -10 -50 0
-24 -4 -47 -10 -50 -5 -3 -10 -31 -10 -61 0 -30 -4 -54 -10 -54 -5 0 -10 -20
-10 -44 0 -36 -4 -45 -21 -49 -19 -5 -21 -11 -16 -46 3 -22 0 -44 -6 -50 -17
-17 -17 -44 -1 -62 13 -14 13 -18 -2 -30 -13 -11 -18 -11 -21 -1 -3 6 -13 12
-24 12 -10 0 -19 5 -19 10 0 6 -7 10 -16 10 -9 0 -24 8 -33 18 -9 10 -32 26
-52 35 -20 9 -42 23 -49 32 -7 8 -22 15 -34 15 -12 0 -35 14 -51 30 -16 17
-38 30 -50 30 -12 0 -30 9 -40 20 -10 11 -23 20 -30 20 -15 0 -55 42 -55 58 0
7 -11 12 -24 12 -15 0 -26 7 -29 20 -3 12 -14 20 -27 20 -12 0 -35 14 -50 30
-15 17 -35 30 -43 30 -9 0 -17 6 -20 13 -3 10 -9 9 -26 0 -27 -17 -31 -16 -31
5 0 20 -42 42 -81 42 -14 0 -32 7 -39 15 -16 19 -44 19 -60 0 -9 -10 -39 -15
-113 -17 l-102 -3 -3 -277 c-2 -270 -3 -278 -22 -278 -17 0 -20 -7 -20 -50 0
-27 -4 -50 -10 -50 -13 0 -13 -47 0 -55 5 -3 10 -30 10 -59 0 -45 -3 -54 -20
-59 -14 -3 -20 -14 -20 -31 0 -14 -4 -26 -10 -26 -5 0 -10 -16 -10 -35 0 -25
-7 -43 -25 -59 -14 -13 -25 -31 -25 -40 0 -9 -4 -16 -10 -16 -23 0 4 -77 29
-82 10 -2 15 -16 15 -38 1 -33 3 -35 36 -38 19 -2 39 -8 44 -13 6 -5 20 -9 31
-9 12 0 32 -11 45 -25 13 -14 33 -25 44 -25 11 0 30 -10 43 -22 20 -19 27 -20
43 -10 24 15 60 16 60 2 0 -5 20 -10 44 -10 25 0 48 -4 51 -10 3 -5 17 -10 30
-10 13 0 27 -5 30 -10 3 -6 22 -10 41 -10 19 0 34 -4 34 -10 0 -5 18 -10 40
-10 38 0 40 -2 40 -30 0 -27 3 -30 30 -30 16 0 44 -8 62 -18 21 -12 63 -21
114 -24 44 -3 92 -12 105 -19 13 -8 26 -15 28 -16 2 -1 4 -13 5 -25 1 -16 8
-24 25 -26 46 -7 51 -22 51 -151 0 -74 -4 -121 -10 -121 -6 0 -10 -27 -10 -60
0 -33 -4 -60 -10 -60 -5 0 -10 -7 -10 -15 0 -8 5 -15 10 -15 6 0 10 -17 10
-38 0 -43 -68 -122 -106 -122 -25 0 -44 -18 -44 -44 0 -11 -10 -30 -21 -42
-19 -21 -20 -25 -8 -53 8 -17 17 -31 21 -31 5 0 8 -11 8 -25 0 -31 31 -64 81
-88 20 -9 42 -23 49 -32 7 -8 23 -15 35 -15 12 0 28 -7 35 -15 7 -8 22 -15 33
-15 11 0 31 -10 44 -22 20 -19 27 -20 43 -10 12 7 21 8 25 2 3 -6 16 -10 28
-10 13 0 29 -9 37 -20 11 -16 26 -20 68 -20 45 0 55 -3 59 -20 3 -12 14 -20
28 -20 12 0 30 -9 40 -20 21 -23 41 -26 48 -7 5 14 77 -50 77 -70 0 -7 11 -13
23 -13 13 0 31 -8 40 -18 9 -10 32 -24 52 -32 19 -8 35 -17 35 -22 0 -4 9 -8
20 -8 11 0 20 -4 20 -10 0 -5 13 -10 28 -10 16 0 34 -8 42 -20 8 -11 24 -20
37 -20 12 0 25 -5 28 -10 3 -6 25 -10 49 -10 34 0 48 -6 71 -30 16 -16 39 -30
51 -30 12 0 27 -7 34 -15 7 -8 28 -15 46 -15 27 0 34 -4 34 -20 0 -15 7 -20
28 -20 16 0 34 -8 42 -20 8 -11 21 -20 30 -20 9 0 22 9 30 20 10 14 26 20 51
20 35 0 93 22 104 41 4 5 15 9 25 9 11 0 35 9 55 20 20 11 48 20 64 20 15 0
36 9 46 20 10 11 26 20 35 20 29 0 70 25 70 43 0 10 8 17 20 17 11 0 20 5 20
10 0 6 23 10 50 10 41 0 50 3 50 18 0 21 43 42 86 42 17 0 45 7 60 15 16 8 53
15 82 15 28 0 52 5 52 10 0 6 9 10 20 10 11 0 20 5 20 10 0 14 33 13 48 -2 8
-8 12 -8 12 -1 0 12 28 23 80 32 29 5 36 11 38 34 2 19 9 27 23 27 11 0 28 6
39 13 17 10 22 9 29 -1 9 -16 42 -2 72 30 12 14 18 15 28 5 8 -8 14 -8 19 -2
13 19 52 35 82 35 20 0 30 5 30 15 0 22 42 35 109 35 45 0 62 4 76 20 10 11
27 20 37 20 26 0 48 24 48 52 0 13 9 30 20 38 11 8 20 21 20 30 0 9 -9 22 -20
30 -19 14 -20 26 -20 317 0 195 4 303 10 303 6 0 10 9 10 20 0 11 -5 20 -11
20 -6 0 -9 19 -7 48 3 54 30 68 63 32 23 -25 47 -26 65 0 8 11 24 20 36 20 13
0 24 8 27 20 7 25 18 25 45 0 27 -25 44 -25 67 0 10 11 29 20 42 20 14 0 23 6
23 15 0 19 9 19 31 -1 18 -16 59 -12 59 7 0 5 13 9 28 9 35 0 155 60 193 96
l29 28 0 616 c0 604 0 617 20 635 11 10 20 25 20 34 0 9 -9 23 -20 31 -15 11
-20 26 -20 57 l0 43 -95 0 -95 0 0 -35 c0 -24 -5 -35 -15 -35 -8 0 -23 -20
-34 -43 -11 -24 -27 -50 -36 -57 -9 -7 -13 -20 -10 -28 3 -8 -5 -26 -17 -39
-19 -20 -20 -27 -10 -43 7 -12 8 -21 2 -25 -6 -3 -10 -17 -10 -31 0 -13 -4
-24 -10 -24 -5 0 -10 -12 -10 -26 0 -29 -21 -54 -44 -54 -9 0 -16 -7 -16 -16
0 -23 -25 -44 -54 -44 -14 0 -26 -4 -26 -10 0 -5 -13 -10 -28 -10 -30 0 -82
20 -82 33 0 4 -9 7 -20 7 -11 0 -20 5 -20 10 0 6 -9 10 -20 10 -11 0 -20 5
-20 10 0 6 5 10 10 10 6 0 10 9 10 20 0 11 -4 20 -10 20 -5 0 -10 11 -10 23 0
13 -9 32 -20 42 -12 11 -20 31 -20 51 0 18 -4 36 -10 39 -5 3 -10 26 -10 51 0
24 -4 44 -10 44 -13 0 -13 297 0 305 13 8 13 52 0 60 -8 5 -7 11 0 21 16 18
-7 71 -33 78 -14 3 -17 10 -12 25 5 16 1 23 -20 31 -14 5 -30 21 -35 35 -6 16
-14 23 -25 19 -21 -9 -19 10 5 31 25 23 25 33 -1 56 -17 15 -18 20 -7 38 10
17 9 23 -10 39 -12 11 -22 29 -22 40 0 13 -11 26 -27 34 -22 10 -29 21 -31 49
-2 24 -13 45 -33 65 -29 28 -40 76 -19 89 6 3 10 18 10 32 0 16 7 27 20 30 16
4 20 14 20 49 0 24 5 44 10 44 6 0 10 20 10 44 0 25 5 48 10 51 6 3 10 35 10
71 0 36 4 64 10 64 6 0 10 14 10 30 0 17 5 30 10 30 6 0 10 7 10 16 0 20 24
44 44 44 12 0 16 10 16 40 0 22 6 49 12 60 10 16 10 24 0 40 -16 27 -16 28 16
32 22 2 27 7 24 27 -3 26 18 81 30 81 5 0 8 7 8 15 0 8 -4 15 -10 15 -5 0 -10
11 -10 25 0 14 5 25 10 25 6 0 10 9 10 20 0 11 5 20 10 20 6 0 10 9 10 20 0
13 7 20 20 20 17 0 20 7 20 44 0 25 5 48 10 51 14 9 12 52 -2 58 -9 3 -6 12
10 29 27 30 28 40 2 58 -14 10 -20 26 -20 52 0 21 -4 38 -9 38 -5 0 -11 9 -14
20 -3 11 -17 24 -31 30 -14 5 -26 16 -26 23 0 8 -9 22 -21 33 -11 10 -29 37
-39 59 -10 22 -30 51 -44 64 -14 14 -26 34 -26 46 0 12 -12 32 -26 46 -14 13
-30 34 -35 47 -5 12 -20 27 -34 32 -14 5 -25 15 -25 22 0 6 -10 22 -21 34 -12
13 -27 34 -33 46 -6 13 -21 27 -34 33 -13 6 -22 19 -22 32 0 17 -6 23 -23 23
-13 0 -32 9 -42 20 -10 11 -23 20 -30 20 -7 0 -20 -9 -30 -20z m-398 -2590 c5
-18 14 -20 98 -20 84 0 93 2 98 20 5 19 14 20 221 20 209 0 216 -1 216 -20 0
-16 7 -20 30 -20 l30 0 0 -144 c0 -86 -4 -147 -10 -151 -5 -3 -10 -17 -10 -31
0 -13 5 -24 10 -24 14 0 12 -96 -2 -121 -10 -17 -10 -23 0 -26 6 -3 12 -17 12
-32 0 -15 9 -33 20 -41 12 -8 20 -26 20 -42 0 -15 5 -28 10 -28 6 0 10 -11 10
-24 0 -14 5 -28 10 -31 6 -3 10 -25 10 -49 0 -50 13 -66 56 -66 18 0 36 -4 39
-10 3 -5 17 -10 29 -10 15 0 26 -7 29 -20 3 -14 14 -20 31 -20 14 0 26 -3 26
-8 0 -4 9 -13 21 -20 18 -12 24 -11 43 7 24 23 152 31 172 11 13 -13 141 49
147 73 3 10 15 17 30 17 16 0 27 7 33 23 5 13 10 -104 11 -287 3 -299 3 -309
-17 -326 -11 -9 -20 -25 -20 -34 0 -9 -8 -16 -19 -16 -10 0 -32 -7 -47 -15
-16 -8 -38 -15 -49 -15 -12 0 -26 -5 -33 -12 -8 -8 -15 -8 -25 0 -17 15 -77
-12 -77 -34 0 -8 -4 -14 -10 -14 -5 0 -10 5 -10 10 0 14 -47 13 -52 -1 -3 -8
-11 -8 -27 2 -19 11 -25 11 -28 2 -3 -7 -13 -13 -24 -13 -12 0 -19 -7 -19 -20
0 -19 -7 -20 -135 -20 l-135 0 0 -70 c0 -39 -6 -80 -12 -91 -10 -17 -10 -23 0
-26 8 -3 12 -26 12 -64 0 -33 4 -59 10 -59 6 0 10 -80 10 -220 l0 -220 -375 0
c-368 0 -375 0 -375 20 0 17 -7 20 -53 20 -29 0 -58 5 -65 12 -9 9 -17 8 -37
-2 -20 -10 -28 -11 -37 -2 -7 7 -20 12 -30 12 -9 0 -34 9 -55 21 -36 20 -45
21 -694 20 -578 -2 -659 0 -672 14 -20 19 -41 19 -57 0 -7 -8 -23 -15 -36 -15
-12 0 -26 -4 -29 -10 -11 -17 -105 -13 -105 5 0 8 5 15 10 15 6 0 10 24 10 54
0 30 4 58 10 61 13 8 13 45 0 45 -6 0 -10 80 -10 220 l0 220 -61 0 c-56 0 -64
3 -91 32 -26 28 -32 30 -49 20 -22 -14 -49 4 -49 32 0 12 -10 16 -40 16 -22 0
-55 9 -75 20 -20 11 -51 20 -70 20 -36 0 -115 29 -115 42 0 5 -9 8 -19 8 -11
0 -21 6 -24 13 -3 9 -8 9 -21 -2 -13 -11 -20 -11 -28 -3 -7 7 -24 12 -38 12
-36 0 -90 28 -90 46 0 10 -13 14 -45 14 -25 0 -45 5 -45 10 0 6 -21 10 -46 10
-47 0 -74 16 -74 44 0 9 -8 16 -20 16 -13 0 -20 7 -20 18 0 10 -5 23 -10 28
-7 7 -4 16 10 29 14 13 20 31 20 61 0 24 5 46 10 49 13 8 13 65 0 65 -5 0 -10
20 -10 45 0 38 3 45 20 45 17 0 20 7 20 50 0 28 5 50 10 50 6 0 10 14 10 30 0
17 -4 30 -10 30 -6 0 -10 57 -10 150 0 140 1 150 19 150 10 0 24 -7 31 -15 7
-8 27 -15 45 -15 18 0 38 -7 45 -15 16 -19 68 -45 92 -45 11 0 18 -7 18 -20 0
-15 7 -20 28 -20 16 0 34 -8 42 -20 8 -11 20 -20 28 -20 18 0 62 -46 62 -65 0
-9 9 -15 23 -15 12 0 34 -11 49 -25 15 -14 32 -25 39 -25 6 0 24 -13 39 -30
15 -16 38 -30 50 -30 13 0 24 -8 27 -20 4 -15 14 -20 39 -20 23 0 34 -5 34
-14 0 -22 100 -68 117 -55 18 16 43 -6 43 -37 0 -19 5 -24 24 -24 28 0 51 -25
51 -54 0 -17 7 -22 38 -24 20 -2 37 -7 37 -13 0 -5 9 -9 20 -9 11 0 20 5 20
10 0 6 18 10 40 10 40 0 40 0 40 38 0 26 6 42 20 52 25 18 25 32 0 50 -18 13
-20 26 -20 160 0 149 9 196 40 202 11 2 14 14 12 45 -2 22 1 44 7 48 6 3 11
33 11 65 0 32 5 62 10 65 6 3 10 21 10 40 0 19 5 37 10 40 6 3 10 17 10 30 0
13 5 27 10 30 6 3 10 15 10 26 0 26 23 49 49 49 11 0 23 5 26 10 4 6 80 10
195 10 115 0 191 -4 195 -10 3 -5 17 -10 31 -10 13 0 24 5 24 10 0 6 24 10 54
10 30 0 58 5 61 10 3 6 26 10 50 10 24 0 47 5 50 10 12 20 75 12 75 -10 0 -11
5 -20 10 -20 6 0 10 -9 10 -20 0 -28 23 -25 102 13 45 21 68 38 68 50 0 12 8
17 30 17 17 0 30 5 30 10 0 6 21 10 46 10 37 0 47 4 51 20 5 18 14 20 104 20
54 0 101 -4 104 -10 3 -5 17 -10 30 -10 13 0 27 5 30 10 3 6 26 10 50 10 24 0
47 5 50 10 10 16 27 11 32 -10z m-382 -2440 c3 -5 22 -10 41 -10 24 0 34 -5
34 -15 0 -11 13 -15 53 -15 29 0 58 -5 65 -12 9 -9 17 -9 36 2 28 15 56 8 56
-15 0 -12 12 -15 54 -15 30 0 58 -5 61 -10 3 -5 15 -10 26 -10 10 0 19 5 19
10 0 11 482 15 493 4 9 -9 -19 -34 -37 -34 -9 0 -16 -4 -16 -10 0 -5 -18 -10
-40 -10 -38 0 -40 -2 -40 -30 0 -23 -4 -30 -20 -30 -11 0 -29 -6 -40 -12 -17
-11 -22 -10 -28 0 -9 14 -60 -6 -82 -33 -7 -8 -21 -15 -31 -15 -11 0 -27 -4
-37 -10 -9 -5 -43 -12 -76 -15 -46 -5 -59 -11 -63 -26 -6 -22 -25 -24 -53 -7
-16 10 -24 10 -40 0 -11 -6 -37 -12 -59 -12 -30 0 -40 -4 -44 -20 -4 -16 -14
-20 -51 -20 -39 0 -46 -3 -46 -20 0 -16 -7 -20 -34 -20 -19 0 -38 -4 -41 -10
-3 -5 -19 -10 -34 -10 -31 0 -83 -23 -101 -45 -7 -9 -30 -15 -55 -15 -28 0
-47 -6 -59 -19 -9 -10 -37 -22 -60 -25 -24 -4 -53 -16 -64 -26 -23 -21 -112
-29 -112 -10 0 6 -8 10 -18 10 -10 0 -24 6 -31 13 -11 9 -14 9 -18 0 -7 -20
-23 -15 -45 12 -11 14 -30 25 -42 25 -13 0 -31 9 -41 20 -19 21 -55 27 -55 10
0 -5 -4 -10 -10 -10 -5 0 -10 9 -10 20 0 14 -7 20 -23 20 -13 0 -32 9 -42 20
-10 11 -28 20 -40 20 -12 0 -34 14 -50 30 -24 25 -37 30 -74 30 -40 0 -50 5
-88 42 -24 23 -43 48 -43 55 0 9 -15 13 -46 13 -37 0 -47 4 -51 20 -3 12 -14
20 -28 20 -12 0 -30 9 -40 20 -14 16 -31 20 -82 20 -56 0 -63 2 -63 20 0 13
-7 20 -19 20 -11 0 -21 6 -24 13 -3 9 -9 9 -27 -2 -20 -11 -24 -11 -32 4 -5 9
-21 21 -35 26 -20 7 -23 13 -15 21 7 7 12 20 12 30 0 24 130 27 150 3 7 -8 20
-15 30 -15 10 0 23 7 30 15 7 8 23 15 36 15 13 0 24 5 24 10 0 7 211 10 614
10 399 0 617 -4 621 -10z"/>
<path d="M2795 2420 c-10 -11 -26 -20 -37 -20 -10 0 -26 -4 -36 -10 -9 -5 -30
-15 -46 -20 -19 -7 -26 -15 -22 -25 8 -22 -17 -18 -32 5 -15 25 -23 25 -49 1
-11 -11 -31 -21 -44 -23 -17 -2 -25 -11 -27 -27 -2 -13 -21 -41 -43 -62 -21
-21 -39 -41 -39 -46 0 -13 124 -133 138 -133 7 0 28 16 48 35 38 38 55 43 74
20 7 -8 20 -15 30 -15 10 0 23 7 30 15 7 8 22 15 35 15 12 0 30 9 40 20 10 11
28 20 40 20 27 0 45 18 45 45 0 12 14 34 30 50 41 39 39 47 -32 115 -70 66
-77 69 -103 40z"/>
<path d="M3953 2328 c-20 -20 -25 -20 -48 -8 -23 12 -27 11 -50 -10 -22 -21
-27 -22 -50 -10 -22 12 -27 11 -44 -8 -10 -12 -28 -22 -39 -22 -11 0 -24 -4
-27 -10 -3 -5 -26 -10 -51 -10 l-44 0 0 -95 0 -95 63 0 c51 0 65 -4 77 -20 19
-26 38 -25 61 2 17 19 22 20 44 8 22 -12 28 -11 48 8 25 23 47 29 47 12 0 -17
36 -11 55 10 10 11 29 20 42 20 17 0 23 6 23 22 0 12 14 37 32 55 l32 33 -69
70 c-79 80 -73 77 -102 48z"/>
</g>
</svg>
